<?xml version="1.0" encoding="UTF-8" standalone="no"?>
<!DOCTYPE svg PUBLIC "-//W3C//DTD SVG 1.1//EN" "http://www.w3.org/Graphics/SVG/1.1/DTD/svg11.dtd">
<svg width="100%" height="100%" viewBox="0 0 128 128" version="1.1" xmlns="http://www.w3.org/2000/svg" xmlns:xlink="http://www.w3.org/1999/xlink" xml:space="preserve" xmlns:serif="http://www.serif.com/" style="fill-rule:evenodd;clip-rule:evenodd;stroke-linejoin:round;stroke-miterlimit:2;">
    <g transform="matrix(1,0,0,1,-2612,-1357.99)">
        <g id="favicon" transform="matrix(0.213333,0,0,0.213333,2612,1357.99)">
            <rect x="0" y="0" width="600" height="600" style="fill:none;"/>
            <clipPath id="_clip1">
                <rect x="0" y="0" width="600" height="600"/>
            </clipPath>
            <g clip-path="url(#_clip1)">
                <g transform="matrix(5.35122,0,0,5.60748,-14025.5,-7665.39)">
                    <path d="M2718.53,1367C2722.63,1367 2726.57,1368.56 2729.47,1371.32C2732.37,1374.09 2734,1377.85 2734,1381.76L2734,1459.24C2734,1463.15 2732.37,1466.91 2729.47,1469.68C2726.57,1472.44 2722.63,1474 2718.53,1474L2636.47,1474C2632.37,1474 2628.43,1472.44 2625.53,1469.68C2622.63,1466.91 2621,1463.15 2621,1459.24L2621,1381.76C2621,1377.85 2622.63,1374.09 2625.53,1371.32C2628.43,1368.56 2632.37,1367 2636.47,1367L2718.53,1367Z" style="fill:rgb(255,247,237);"/>
                </g>
                <g transform="matrix(3.00159,-2.21907e-16,6.31513e-16,3.00159,-1134.13,-4576.43)">
                    <g transform="matrix(192,0,0,192,377.22,1691.19)">
                        <path d="M0.195,-0.261C0.195,-0.309 0.202,-0.349 0.216,-0.381C0.23,-0.414 0.248,-0.439 0.27,-0.456C0.293,-0.472 0.317,-0.481 0.342,-0.481C0.372,-0.481 0.396,-0.472 0.413,-0.456C0.429,-0.439 0.438,-0.416 0.438,-0.387C0.438,-0.364 0.433,-0.346 0.423,-0.334C0.413,-0.322 0.401,-0.316 0.385,-0.316C0.369,-0.316 0.357,-0.321 0.348,-0.33C0.34,-0.338 0.335,-0.351 0.335,-0.366L0.335,-0.383C0.335,-0.395 0.333,-0.403 0.327,-0.409C0.322,-0.414 0.313,-0.417 0.301,-0.417C0.287,-0.417 0.273,-0.411 0.259,-0.4C0.245,-0.388 0.234,-0.371 0.225,-0.348C0.217,-0.325 0.212,-0.296 0.212,-0.262L0.195,-0.261ZM0.207,-0.451L0.212,-0.335L0.212,-0.07C0.212,-0.061 0.214,-0.055 0.218,-0.051C0.222,-0.046 0.229,-0.043 0.238,-0.042L0.283,-0.036C0.29,-0.035 0.295,-0.033 0.299,-0.03C0.302,-0.027 0.304,-0.022 0.304,-0.017C0.304,-0.012 0.302,-0.008 0.298,-0.005C0.294,-0.002 0.288,-0 0.281,-0L0.068,-0C0.06,-0 0.055,-0.002 0.051,-0.005C0.047,-0.008 0.046,-0.012 0.046,-0.017C0.046,-0.021 0.047,-0.025 0.05,-0.028C0.053,-0.03 0.057,-0.033 0.063,-0.035L0.086,-0.04C0.093,-0.042 0.098,-0.045 0.101,-0.049C0.105,-0.054 0.107,-0.06 0.107,-0.07L0.107,-0.378C0.107,-0.386 0.105,-0.391 0.103,-0.395C0.1,-0.398 0.096,-0.4 0.09,-0.401L0.056,-0.402C0.05,-0.403 0.046,-0.405 0.044,-0.407C0.041,-0.41 0.04,-0.413 0.04,-0.417C0.04,-0.421 0.042,-0.425 0.045,-0.428C0.047,-0.431 0.053,-0.433 0.06,-0.436L0.141,-0.465C0.154,-0.47 0.164,-0.473 0.171,-0.475C0.177,-0.476 0.182,-0.477 0.186,-0.477C0.193,-0.477 0.197,-0.475 0.201,-0.471C0.204,-0.467 0.206,-0.46 0.207,-0.451Z" style="fill:rgb(84,23,22);fill-rule:nonzero;"/>
                    </g>
                    <g transform="matrix(192,0,0,192,464.388,1691.19)">
                        <path d="M0.188,-0.711L0.188,-0.063L0.145,-0.003C0.133,0.002 0.125,0.006 0.119,0.008C0.114,0.01 0.109,0.011 0.103,0.011C0.097,0.011 0.092,0.009 0.088,0.006C0.084,0.002 0.083,-0.003 0.083,-0.011L0.083,-0.64C0.083,-0.647 0.081,-0.653 0.079,-0.656C0.076,-0.66 0.072,-0.662 0.066,-0.662L0.032,-0.664C0.027,-0.665 0.022,-0.666 0.02,-0.669C0.017,-0.671 0.016,-0.674 0.016,-0.678C0.016,-0.683 0.018,-0.686 0.02,-0.689C0.023,-0.692 0.029,-0.695 0.036,-0.698L0.118,-0.727C0.129,-0.731 0.138,-0.734 0.145,-0.735C0.151,-0.737 0.157,-0.738 0.162,-0.738C0.171,-0.738 0.177,-0.735 0.182,-0.731C0.186,-0.726 0.188,-0.719 0.188,-0.711ZM0.163,-0.331L0.147,-0.358C0.172,-0.396 0.202,-0.427 0.237,-0.448C0.271,-0.47 0.308,-0.481 0.348,-0.481C0.388,-0.481 0.423,-0.471 0.454,-0.451C0.485,-0.43 0.509,-0.403 0.527,-0.367C0.545,-0.332 0.553,-0.291 0.553,-0.245C0.553,-0.193 0.543,-0.147 0.522,-0.109C0.501,-0.07 0.473,-0.041 0.438,-0.02C0.403,0.001 0.363,0.012 0.32,0.012C0.28,0.012 0.245,0.002 0.214,-0.018C0.182,-0.037 0.157,-0.065 0.138,-0.101L0.163,-0.127C0.18,-0.097 0.201,-0.074 0.225,-0.058C0.249,-0.043 0.275,-0.035 0.303,-0.035C0.329,-0.035 0.353,-0.042 0.374,-0.057C0.395,-0.071 0.412,-0.093 0.424,-0.123C0.436,-0.152 0.442,-0.189 0.442,-0.233C0.442,-0.276 0.436,-0.311 0.425,-0.339C0.413,-0.368 0.397,-0.389 0.376,-0.403C0.356,-0.418 0.333,-0.425 0.307,-0.425C0.279,-0.425 0.254,-0.417 0.23,-0.401C0.205,-0.386 0.183,-0.362 0.163,-0.331Z" style="fill:rgb(84,23,22);fill-rule:nonzero;"/>
                    </g>
                    <g transform="matrix(192,0,0,192,578.475,1691.19)">
                    </g>
                </g>
            </g>
        </g>
    </g>
</svg>
