<?xml version="1.0" encoding="UTF-8" standalone="no"?>
<!DOCTYPE svg PUBLIC "-//W3C//DTD SVG 1.1//EN" "http://www.w3.org/Graphics/SVG/1.1/DTD/svg11.dtd">
<svg width="100%" height="100%" viewBox="0 0 1105 858" version="1.1" xmlns="http://www.w3.org/2000/svg" xmlns:xlink="http://www.w3.org/1999/xlink" xml:space="preserve" xmlns:serif="http://www.serif.com/" style="fill-rule:evenodd;clip-rule:evenodd;stroke-linejoin:round;stroke-miterlimit:2;">
    <g transform="matrix(1,0,0,1,0,-1076.99)">
        <g id="logo_full" transform="matrix(1.84167,0,0,1.43,0,1076.99)">
            <rect x="0" y="0" width="600" height="600" style="fill:none;"/>
            <g transform="matrix(0.542986,0,0,0.699301,-33.1222,-49.6503)">
                <path d="M370.909,863.635C371.897,865.195 373.848,865.842 375.574,865.182C377.299,864.523 378.32,862.738 378.014,860.917C323.093,536.85 409.013,554.197 516,498C556.935,476.498 591.63,459.666 644,445C690.978,431.844 754.83,428.468 763,418C771.17,407.532 738.26,404.2 718,401C703.296,385.262 653.14,369.801 560,388C631.483,301.476 636.981,212.891 627,180C619.716,177.992 569.577,174.145 525,199C521.816,170.427 507.647,163.614 503,159C496.129,147.081 488.495,139.758 474,129C462.67,120.591 457.162,113.502 452.652,108.112C451.821,107.168 450.586,106.681 449.335,106.804C448.083,106.928 446.967,107.646 446.336,108.734C418.423,157.507 392.816,176.116 365,220C354.676,208.278 348.706,209.789 329,182C313.066,159.531 297.488,144.738 289.395,140.34C288.382,139.794 287.176,139.735 286.115,140.179C285.053,140.623 284.249,141.523 283.927,142.628C279.988,158.326 281.329,182.356 273,220C264.001,260.674 254.227,281.953 251,298C201.477,284.024 149.288,267.442 119.553,290.907C118.312,291.888 117.544,293.348 117.439,294.926C117.334,296.505 117.901,298.054 119.001,299.191C143.141,324.214 164.221,338.246 188,364C137.957,368.95 100.726,384.207 115,402C116.76,404.194 118.3,407.399 129,408C136.708,408.433 144.25,408.382 157,414C169.409,419.468 187.633,422.963 200,425C212.367,427.037 223.893,429.717 233,431C242.137,432.288 248.965,433.96 263,437C277.035,440.04 284.06,460.608 282,512C279.94,563.392 297.106,624.986 299,638C301.603,655.881 313.08,700.857 326,727.115C362.514,801.327 334.22,807.818 370.909,863.635Z" style="fill:rgb(190,44,30);"/>
            </g>
            <g transform="matrix(0.542986,0,0,0.699301,-33.1222,-49.6503)">
                <path d="M254.933,283.478C262.455,287.927 289.737,305.149 306.957,330.34C306.957,330.34 277.73,305.924 251,298C251.877,293.64 253.237,288.894 254.933,283.478Z" style="fill:rgb(164,33,29);"/>
            </g>
            <g transform="matrix(0.542986,0,0,0.699301,-33.1222,-49.6503)">
                <path d="M364.795,640.271C349.42,547.803 391.939,436.338 676.146,424.808C677.033,424.772 677.853,425.283 678.21,426.097C678.568,426.91 678.391,427.86 677.764,428.49C674.174,432.103 670.694,435.748 667.313,439.416C659.311,441.076 651.444,442.915 644,445C591.63,459.666 381.187,542.602 364.795,640.271Z" style="fill:rgb(164,33,29);"/>
            </g>
            <g transform="matrix(0.542986,0,0,0.699301,-33.1222,-49.6503)">
                <path d="M188,364C188,364 216.674,393.415 275,414C271.749,434.756 245.068,427.634 240.602,432.242C238.107,431.78 235.651,431.374 233,431C223.893,429.717 212.367,427.037 200,425C187.633,422.963 169.409,419.468 157,414C144.25,408.382 136.708,408.433 129,408C118.3,407.399 116.76,404.194 115,402C100.726,384.207 137.957,368.95 188,364Z" style="fill:rgb(164,33,29);"/>
            </g>
            <g transform="matrix(0.542986,0,0,0.699301,-33.1222,-49.6503)">
                <path d="M332,740C307.304,695.322 300.358,643.773 299,635.316C297.308,624.775 282.917,584.598 282.684,541.697C291.191,560.614 317.359,621.946 323,643C329.701,668.014 332,740 332,740Z" style="fill:rgb(164,33,29);"/>
            </g>
            <g transform="matrix(0.542986,0,0,0.699301,-33.1222,-49.6503)">
                <path d="M365.035,219.942C392.526,177.003 418.705,157.013 446.336,108.734C446.967,107.646 448.083,106.928 449.335,106.804C450.586,106.681 451.821,107.168 452.652,108.112C457.162,113.502 462.67,120.591 474,129C488.495,139.758 496.129,147.081 503,159C514.108,167.404 523.465,178.731 524.995,199.001C473.258,236.194 435.835,247.045 389,300C398.142,253.602 372.198,226.837 365.035,219.942Z" style="fill:rgb(164,33,29);"/>
            </g>
            <g transform="matrix(0.542986,0,0,0.699301,-1261.9,-274.825)">
                <path d="M2583.4,724.146C2582.58,722.329 2583.19,720.186 2584.85,719.079C2643.34,680.334 2715.32,685.992 2791.46,714.862C2792.33,715.192 2792.89,716.025 2792.89,716.951C2792.88,717.877 2792.3,718.7 2791.43,719.016C2751.66,733.318 2699.24,750.98 2667.04,795.123C2665.85,796.77 2663.63,797.283 2661.84,796.325C2623.5,775.801 2596.37,752.027 2583.4,724.146Z" style="fill:rgb(164,33,29);"/>
            </g>
            <g transform="matrix(0.542986,0,0,0.699301,-659.186,-254.545)">
                <path d="M1569.07,782.987C1584.81,756.512 1592.15,754.392 1631.55,741.349C1640.14,738.505 1656.08,738.328 1666.94,735.774" style="fill:none;"/>
            </g>
            <g transform="matrix(0.542986,0,0,0.699301,-1261.9,-272.727)">
                <path d="M2657,814C2680.16,757.862 2714.1,727.145 2761,727C2761,727 2765.02,732.263 2758,741C2750.98,749.737 2730.87,749.741 2693,804C2678.83,824.305 2659.65,817.115 2657,814Z" style="fill:rgb(127,33,27);"/>
            </g>
            <g transform="matrix(0.542986,0,0,0.699301,-659.186,-254.545)">
                <path d="M1454.06,686.531C1454.48,686.633 1454.92,686.515 1455.23,686.218C1455.54,685.92 1455.67,685.485 1455.59,685.064C1452.79,673.262 1433.9,611.346 1345,607C1329.41,606.238 1318,601 1318,601C1318,601 1370.32,665.858 1454.06,686.531Z" style="fill:rgb(221,137,93);"/>
            </g>
            <g transform="matrix(0.542986,0,0,0.699301,-659.186,-254.545)">
                <path d="M1470,629C1470,629 1485.4,632.179 1492.13,649.521C1492.34,650.071 1492.81,650.479 1493.39,650.611C1493.96,650.742 1494.56,650.579 1494.99,650.175C1515.18,630.696 1522.58,590.934 1483,536C1460.83,567.536 1461.49,582.932 1470,629Z" style="fill:rgb(221,137,93);"/>
            </g>
            <g transform="matrix(0.542986,0,0,0.699301,-659.186,-254.545)">
                <path d="M1555,579C1557.09,546.58 1564.01,487.106 1606,461C1629.56,477.756 1631.52,501.934 1633,521C1622.12,527.035 1574.64,558.529 1555,579Z" style="fill:rgb(127,33,27);"/>
            </g>
            <g transform="matrix(0.542986,0,0,0.699301,-659.186,-254.545)">
                <path d="M1525,668C1525,668 1549.9,605.444 1622,596C1694.1,586.556 1692,629 1692,629C1692,629 1645.81,661.917 1648,675C1621.46,668.86 1590.58,655.178 1525,668Z" style="fill:rgb(221,137,93);"/>
            </g>
            <g transform="matrix(0.542986,0,0,0.699301,-1257.01,-273.427)">
                <path d="M2731,617C2731,617 2779.59,582.688 2801,555C2814.89,535.258 2842,530 2842,530C2855.73,545.874 2815.75,647.631 2782,670C2776.95,670.252 2772.52,668.546 2769,664C2769,664 2778.64,642.089 2760,642C2741.36,641.911 2761.34,626.459 2736,635C2705.14,645.401 2723.45,621.177 2731,617Z" style="fill:rgb(164,33,29);"/>
            </g>
            <g transform="matrix(0.542986,0,0,0.699301,-659.186,-254.545)">
                <path d="M1469.75,764.5C1469.52,764.346 1469.2,764.391 1469.02,764.605C1468.84,764.819 1468.84,765.136 1469.03,765.345C1479.12,776.82 1510.71,815.847 1507.39,850.904C1507.35,851.193 1507.52,851.467 1507.8,851.56C1508.08,851.653 1508.38,851.539 1508.53,851.287C1529.35,814.679 1545.21,801.006 1551.29,796.707C1551.72,796.477 1551.95,795.998 1551.86,795.521C1551.78,795.044 1551.39,794.678 1550.91,794.614C1520.3,790.493 1493.54,779.979 1469.75,764.5Z" style="fill:rgb(221,137,93);"/>
            </g>
            <g transform="matrix(0.542986,0,0,0.699301,-1267.87,-280.42)">
                <path d="M2659,816C2659,816 2620.37,804.908 2573,756C2562.64,756.124 2563.41,761.253 2567,766C2574.53,783.4 2653.81,839.443 2655,831C2666.23,830.805 2667.62,825.832 2659,816Z" style="fill:rgb(164,33,29);"/>
            </g>
            <g transform="matrix(0.542986,0,0,0.699301,-632.308,-49.6503)">
                <path d="M1664,388C1664,388 1646.62,389.526 1635,394C1649.26,382.383 1670.03,371.815 1676.82,370.846C1669.92,379.997 1664,388 1664,388Z" style="fill:rgb(164,33,29);"/>
            </g>
            <g transform="matrix(0.542986,0,0,0.699301,-632.308,-49.6503)">
                <path d="M1492.83,299.709C1492.83,299.709 1483.46,308.722 1481,315C1478.54,321.278 1486.28,297.356 1494,290C1494.78,294.682 1492.83,299.709 1492.83,299.709Z" style="fill:rgb(164,33,29);"/>
            </g>
            <g transform="matrix(0.461729,-4.39625e-17,9.71445e-17,0.594651,28.4622,-604.514)">
                <g transform="matrix(192,0,0,192,377.22,1691.19)">
                    <path d="M0.195,-0.261C0.195,-0.309 0.202,-0.349 0.216,-0.381C0.23,-0.414 0.248,-0.439 0.27,-0.456C0.293,-0.472 0.317,-0.481 0.342,-0.481C0.372,-0.481 0.396,-0.472 0.413,-0.456C0.429,-0.439 0.438,-0.416 0.438,-0.387C0.438,-0.364 0.433,-0.346 0.423,-0.334C0.413,-0.322 0.401,-0.316 0.385,-0.316C0.369,-0.316 0.357,-0.321 0.348,-0.33C0.34,-0.338 0.335,-0.351 0.335,-0.366L0.335,-0.383C0.335,-0.395 0.333,-0.403 0.327,-0.409C0.322,-0.414 0.313,-0.417 0.301,-0.417C0.287,-0.417 0.273,-0.411 0.259,-0.4C0.245,-0.388 0.234,-0.371 0.225,-0.348C0.217,-0.325 0.212,-0.296 0.212,-0.262L0.195,-0.261ZM0.207,-0.451L0.212,-0.335L0.212,-0.07C0.212,-0.061 0.214,-0.055 0.218,-0.051C0.222,-0.046 0.229,-0.043 0.238,-0.042L0.283,-0.036C0.29,-0.035 0.295,-0.033 0.299,-0.03C0.302,-0.027 0.304,-0.022 0.304,-0.017C0.304,-0.012 0.302,-0.008 0.298,-0.005C0.294,-0.002 0.288,-0 0.281,-0L0.068,-0C0.06,-0 0.055,-0.002 0.051,-0.005C0.047,-0.008 0.046,-0.012 0.046,-0.017C0.046,-0.021 0.047,-0.025 0.05,-0.028C0.053,-0.03 0.057,-0.033 0.063,-0.035L0.086,-0.04C0.093,-0.042 0.098,-0.045 0.101,-0.049C0.105,-0.054 0.107,-0.06 0.107,-0.07L0.107,-0.378C0.107,-0.386 0.105,-0.391 0.103,-0.395C0.1,-0.398 0.096,-0.4 0.09,-0.401L0.056,-0.402C0.05,-0.403 0.046,-0.405 0.044,-0.407C0.041,-0.41 0.04,-0.413 0.04,-0.417C0.04,-0.421 0.042,-0.425 0.045,-0.428C0.047,-0.431 0.053,-0.433 0.06,-0.436L0.141,-0.465C0.154,-0.47 0.164,-0.473 0.171,-0.475C0.177,-0.476 0.182,-0.477 0.186,-0.477C0.193,-0.477 0.197,-0.475 0.201,-0.471C0.204,-0.467 0.206,-0.46 0.207,-0.451Z" style="fill:rgb(84,23,22);fill-rule:nonzero;"/>
                </g>
                <g transform="matrix(192,0,0,192,464.388,1691.19)">
                    <path d="M0.483,-0.293C0.483,-0.277 0.478,-0.265 0.469,-0.257C0.46,-0.249 0.446,-0.245 0.429,-0.245L0.109,-0.245L0.109,-0.277L0.349,-0.277C0.366,-0.277 0.375,-0.285 0.375,-0.3C0.375,-0.344 0.365,-0.379 0.346,-0.403C0.326,-0.428 0.301,-0.441 0.268,-0.441C0.243,-0.441 0.22,-0.434 0.201,-0.419C0.182,-0.405 0.166,-0.384 0.156,-0.358C0.145,-0.331 0.139,-0.3 0.139,-0.265C0.139,-0.198 0.155,-0.148 0.187,-0.114C0.219,-0.079 0.26,-0.062 0.312,-0.062C0.345,-0.062 0.374,-0.07 0.398,-0.085C0.422,-0.099 0.439,-0.119 0.45,-0.143C0.454,-0.149 0.457,-0.153 0.46,-0.155C0.463,-0.157 0.466,-0.158 0.47,-0.158C0.475,-0.158 0.478,-0.156 0.48,-0.152C0.482,-0.148 0.483,-0.143 0.483,-0.138C0.481,-0.111 0.471,-0.086 0.453,-0.063C0.435,-0.04 0.411,-0.022 0.381,-0.009C0.352,0.005 0.318,0.012 0.28,0.012C0.233,0.012 0.191,0.002 0.155,-0.018C0.119,-0.038 0.091,-0.065 0.071,-0.101C0.051,-0.137 0.041,-0.178 0.041,-0.226C0.041,-0.275 0.051,-0.319 0.071,-0.357C0.09,-0.395 0.118,-0.425 0.154,-0.448C0.19,-0.47 0.232,-0.481 0.282,-0.481C0.323,-0.481 0.359,-0.473 0.389,-0.457C0.419,-0.441 0.442,-0.419 0.458,-0.391C0.475,-0.362 0.483,-0.33 0.483,-0.293Z" style="fill:rgb(84,23,22);fill-rule:nonzero;"/>
                </g>
                <g transform="matrix(192,0,0,192,564.881,1691.19)">
                    <path d="M0.222,-0.443C0.197,-0.443 0.177,-0.437 0.162,-0.424C0.148,-0.411 0.141,-0.394 0.141,-0.373C0.141,-0.361 0.144,-0.349 0.15,-0.339C0.156,-0.328 0.166,-0.319 0.182,-0.311C0.198,-0.302 0.22,-0.294 0.249,-0.287C0.296,-0.276 0.332,-0.263 0.358,-0.248C0.384,-0.232 0.402,-0.215 0.413,-0.195C0.424,-0.175 0.429,-0.154 0.429,-0.13C0.429,-0.087 0.414,-0.053 0.383,-0.027C0.353,-0.001 0.309,0.012 0.253,0.012C0.232,0.012 0.215,0.01 0.201,0.006C0.188,0.002 0.177,-0.001 0.168,-0.005C0.159,-0.008 0.151,-0.01 0.144,-0.01C0.137,-0.01 0.132,-0.008 0.128,-0.005C0.124,-0.001 0.121,0.003 0.117,0.006C0.114,0.01 0.109,0.012 0.103,0.012C0.099,0.012 0.095,0.01 0.092,0.008C0.09,0.005 0.087,-0 0.085,-0.007L0.048,-0.112C0.045,-0.121 0.044,-0.129 0.045,-0.135C0.047,-0.141 0.05,-0.146 0.057,-0.148C0.063,-0.15 0.068,-0.15 0.073,-0.148C0.078,-0.145 0.082,-0.141 0.086,-0.135C0.101,-0.107 0.117,-0.086 0.134,-0.07C0.151,-0.054 0.169,-0.043 0.188,-0.036C0.207,-0.029 0.227,-0.026 0.247,-0.026C0.279,-0.026 0.303,-0.033 0.318,-0.046C0.334,-0.059 0.342,-0.077 0.342,-0.099C0.342,-0.112 0.339,-0.124 0.332,-0.135C0.325,-0.146 0.313,-0.156 0.295,-0.165C0.278,-0.174 0.253,-0.183 0.22,-0.191C0.179,-0.201 0.147,-0.213 0.123,-0.227C0.099,-0.241 0.081,-0.258 0.071,-0.277C0.06,-0.297 0.055,-0.32 0.055,-0.346C0.055,-0.372 0.062,-0.396 0.075,-0.416C0.089,-0.436 0.107,-0.452 0.132,-0.464C0.156,-0.475 0.184,-0.481 0.217,-0.481C0.238,-0.481 0.255,-0.479 0.268,-0.475C0.281,-0.471 0.292,-0.467 0.301,-0.463C0.309,-0.459 0.317,-0.457 0.323,-0.457C0.331,-0.457 0.336,-0.459 0.34,-0.463C0.344,-0.467 0.348,-0.471 0.352,-0.475C0.355,-0.479 0.359,-0.481 0.365,-0.481C0.369,-0.481 0.372,-0.479 0.375,-0.477C0.378,-0.474 0.38,-0.469 0.381,-0.462L0.41,-0.363C0.412,-0.353 0.413,-0.345 0.413,-0.338C0.412,-0.332 0.408,-0.327 0.402,-0.324C0.395,-0.322 0.39,-0.323 0.385,-0.326C0.381,-0.329 0.376,-0.335 0.371,-0.343C0.352,-0.379 0.33,-0.405 0.303,-0.42C0.277,-0.435 0.25,-0.443 0.222,-0.443Z" style="fill:rgb(84,23,22);fill-rule:nonzero;"/>
                </g>
                <g transform="matrix(192,0,0,192,564.881,1691.19)">
                </g>
                <g transform="matrix(192,0,0,192,655.141,1691.19)">
                    <path d="M0.071,-0.429L0.045,-0.436C0.036,-0.438 0.031,-0.441 0.027,-0.444C0.024,-0.447 0.023,-0.45 0.023,-0.454C0.023,-0.46 0.024,-0.464 0.028,-0.466C0.032,-0.469 0.037,-0.471 0.043,-0.471L0.075,-0.471C0.084,-0.471 0.091,-0.472 0.097,-0.475C0.102,-0.478 0.107,-0.483 0.111,-0.491L0.151,-0.563C0.156,-0.571 0.161,-0.577 0.166,-0.58C0.171,-0.584 0.176,-0.586 0.181,-0.586C0.187,-0.586 0.192,-0.584 0.195,-0.58C0.198,-0.576 0.2,-0.571 0.2,-0.565L0.2,-0.124C0.2,-0.101 0.205,-0.084 0.214,-0.072C0.224,-0.06 0.237,-0.054 0.254,-0.054C0.266,-0.054 0.276,-0.056 0.282,-0.06C0.289,-0.064 0.295,-0.069 0.298,-0.074C0.302,-0.08 0.306,-0.084 0.309,-0.089C0.313,-0.093 0.317,-0.095 0.322,-0.095C0.327,-0.095 0.33,-0.093 0.332,-0.091C0.335,-0.088 0.336,-0.083 0.336,-0.077C0.336,-0.063 0.331,-0.049 0.32,-0.036C0.31,-0.023 0.296,-0.012 0.277,-0.004C0.259,0.004 0.238,0.009 0.215,0.009C0.178,0.009 0.148,-0.001 0.127,-0.02C0.105,-0.039 0.094,-0.068 0.094,-0.107L0.094,-0.4C0.094,-0.408 0.092,-0.414 0.089,-0.418C0.085,-0.423 0.08,-0.426 0.071,-0.429ZM0.152,-0.431L0.152,-0.471L0.31,-0.471C0.317,-0.471 0.322,-0.469 0.326,-0.467C0.329,-0.464 0.331,-0.46 0.331,-0.455C0.331,-0.448 0.328,-0.442 0.321,-0.438C0.313,-0.433 0.302,-0.431 0.287,-0.431L0.152,-0.431Z" style="fill:rgb(84,23,22);fill-rule:nonzero;"/>
                </g>
                <g transform="matrix(192,0,0,192,725.375,1691.19)">
                    <path d="M0.295,-0.481C0.344,-0.481 0.387,-0.47 0.424,-0.449C0.462,-0.428 0.491,-0.399 0.512,-0.362C0.533,-0.325 0.544,-0.282 0.544,-0.234C0.544,-0.187 0.533,-0.145 0.512,-0.108C0.49,-0.071 0.461,-0.042 0.423,-0.02C0.385,0.001 0.341,0.012 0.291,0.012C0.242,0.012 0.199,0.001 0.161,-0.02C0.124,-0.041 0.095,-0.07 0.073,-0.107C0.052,-0.144 0.042,-0.187 0.042,-0.235C0.042,-0.283 0.052,-0.325 0.074,-0.362C0.095,-0.399 0.125,-0.428 0.163,-0.449C0.201,-0.47 0.245,-0.481 0.295,-0.481ZM0.33,-0.032C0.358,-0.036 0.38,-0.047 0.398,-0.066C0.415,-0.085 0.427,-0.11 0.433,-0.142C0.439,-0.174 0.438,-0.211 0.431,-0.254C0.423,-0.298 0.411,-0.334 0.395,-0.362C0.378,-0.391 0.358,-0.411 0.334,-0.424C0.31,-0.437 0.284,-0.441 0.256,-0.437C0.228,-0.433 0.205,-0.421 0.188,-0.403C0.17,-0.384 0.159,-0.359 0.153,-0.327C0.147,-0.295 0.148,-0.258 0.155,-0.215C0.162,-0.171 0.174,-0.135 0.191,-0.107C0.208,-0.078 0.228,-0.057 0.252,-0.045C0.275,-0.032 0.301,-0.028 0.33,-0.032Z" style="fill:rgb(84,23,22);fill-rule:nonzero;"/>
                </g>
                <g transform="matrix(192,0,0,192,837.83,1691.19)">
                    <path d="M0.195,-0.261C0.195,-0.309 0.202,-0.349 0.216,-0.381C0.23,-0.414 0.248,-0.439 0.27,-0.456C0.293,-0.472 0.317,-0.481 0.342,-0.481C0.372,-0.481 0.396,-0.472 0.413,-0.456C0.429,-0.439 0.438,-0.416 0.438,-0.387C0.438,-0.364 0.433,-0.346 0.423,-0.334C0.413,-0.322 0.401,-0.316 0.385,-0.316C0.369,-0.316 0.357,-0.321 0.348,-0.33C0.34,-0.338 0.335,-0.351 0.335,-0.366L0.335,-0.383C0.335,-0.395 0.333,-0.403 0.327,-0.409C0.322,-0.414 0.313,-0.417 0.301,-0.417C0.287,-0.417 0.273,-0.411 0.259,-0.4C0.245,-0.388 0.234,-0.371 0.225,-0.348C0.217,-0.325 0.212,-0.296 0.212,-0.262L0.195,-0.261ZM0.207,-0.451L0.212,-0.335L0.212,-0.07C0.212,-0.061 0.214,-0.055 0.218,-0.051C0.222,-0.046 0.229,-0.043 0.238,-0.042L0.283,-0.036C0.29,-0.035 0.295,-0.033 0.299,-0.03C0.302,-0.027 0.304,-0.022 0.304,-0.017C0.304,-0.012 0.302,-0.008 0.298,-0.005C0.294,-0.002 0.288,-0 0.281,-0L0.068,-0C0.06,-0 0.055,-0.002 0.051,-0.005C0.047,-0.008 0.046,-0.012 0.046,-0.017C0.046,-0.021 0.047,-0.025 0.05,-0.028C0.053,-0.03 0.057,-0.033 0.063,-0.035L0.086,-0.04C0.093,-0.042 0.098,-0.045 0.101,-0.049C0.105,-0.054 0.107,-0.06 0.107,-0.07L0.107,-0.378C0.107,-0.386 0.105,-0.391 0.103,-0.395C0.1,-0.398 0.096,-0.4 0.09,-0.401L0.056,-0.402C0.05,-0.403 0.046,-0.405 0.044,-0.407C0.041,-0.41 0.04,-0.413 0.04,-0.417C0.04,-0.421 0.042,-0.425 0.045,-0.428C0.047,-0.431 0.053,-0.433 0.06,-0.436L0.141,-0.465C0.154,-0.47 0.164,-0.473 0.171,-0.475C0.177,-0.476 0.182,-0.477 0.186,-0.477C0.193,-0.477 0.197,-0.475 0.201,-0.471C0.204,-0.467 0.206,-0.46 0.207,-0.451Z" style="fill:rgb(84,23,22);fill-rule:nonzero;"/>
                </g>
                <g transform="matrix(192,0,0,192,924.999,1691.19)">
                    <path d="M0.483,-0.293C0.483,-0.277 0.478,-0.265 0.469,-0.257C0.46,-0.249 0.446,-0.245 0.429,-0.245L0.109,-0.245L0.109,-0.277L0.349,-0.277C0.366,-0.277 0.375,-0.285 0.375,-0.3C0.375,-0.344 0.365,-0.379 0.346,-0.403C0.326,-0.428 0.301,-0.441 0.268,-0.441C0.243,-0.441 0.22,-0.434 0.201,-0.419C0.182,-0.405 0.166,-0.384 0.156,-0.358C0.145,-0.331 0.139,-0.3 0.139,-0.265C0.139,-0.198 0.155,-0.148 0.187,-0.114C0.219,-0.079 0.26,-0.062 0.312,-0.062C0.345,-0.062 0.374,-0.07 0.398,-0.085C0.422,-0.099 0.439,-0.119 0.45,-0.143C0.454,-0.149 0.457,-0.153 0.46,-0.155C0.463,-0.157 0.466,-0.158 0.47,-0.158C0.475,-0.158 0.478,-0.156 0.48,-0.152C0.482,-0.148 0.483,-0.143 0.483,-0.138C0.481,-0.111 0.471,-0.086 0.453,-0.063C0.435,-0.04 0.411,-0.022 0.381,-0.009C0.352,0.005 0.318,0.012 0.28,0.012C0.233,0.012 0.191,0.002 0.155,-0.018C0.119,-0.038 0.091,-0.065 0.071,-0.101C0.051,-0.137 0.041,-0.178 0.041,-0.226C0.041,-0.275 0.051,-0.319 0.071,-0.357C0.09,-0.395 0.118,-0.425 0.154,-0.448C0.19,-0.47 0.232,-0.481 0.282,-0.481C0.323,-0.481 0.359,-0.473 0.389,-0.457C0.419,-0.441 0.442,-0.419 0.458,-0.391C0.475,-0.362 0.483,-0.33 0.483,-0.293Z" style="fill:rgb(84,23,22);fill-rule:nonzero;"/>
                </g>
                <g transform="matrix(192,0,0,192,1025.49,1691.19)">
                    <path d="M0.409,-0.082L0.406,-0.086L0.406,-0.64C0.406,-0.647 0.405,-0.653 0.403,-0.656C0.4,-0.66 0.396,-0.662 0.39,-0.662L0.356,-0.664C0.35,-0.665 0.346,-0.666 0.344,-0.669C0.341,-0.671 0.34,-0.674 0.34,-0.678C0.34,-0.683 0.342,-0.686 0.344,-0.689C0.347,-0.692 0.352,-0.695 0.36,-0.698L0.442,-0.727C0.453,-0.731 0.461,-0.733 0.468,-0.735C0.475,-0.737 0.481,-0.738 0.486,-0.738C0.495,-0.738 0.501,-0.735 0.506,-0.731C0.51,-0.726 0.512,-0.719 0.512,-0.711L0.512,-0.07C0.512,-0.061 0.514,-0.054 0.517,-0.049C0.521,-0.045 0.526,-0.042 0.532,-0.04L0.555,-0.035C0.561,-0.033 0.565,-0.031 0.568,-0.028C0.571,-0.025 0.573,-0.021 0.573,-0.017C0.573,-0.012 0.571,-0.008 0.567,-0.005C0.563,-0.002 0.557,-0 0.549,-0L0.46,-0C0.445,-0 0.432,-0.004 0.423,-0.013C0.414,-0.022 0.409,-0.035 0.409,-0.051L0.409,-0.082ZM0.041,-0.224C0.041,-0.277 0.052,-0.322 0.073,-0.361C0.093,-0.399 0.121,-0.429 0.157,-0.45C0.192,-0.47 0.231,-0.481 0.275,-0.481C0.314,-0.481 0.35,-0.471 0.381,-0.451C0.412,-0.432 0.438,-0.404 0.457,-0.368L0.432,-0.342C0.414,-0.372 0.394,-0.395 0.37,-0.411C0.345,-0.427 0.32,-0.435 0.292,-0.435C0.266,-0.435 0.242,-0.427 0.221,-0.413C0.2,-0.398 0.183,-0.376 0.171,-0.347C0.159,-0.318 0.153,-0.281 0.153,-0.236C0.153,-0.194 0.158,-0.159 0.17,-0.13C0.182,-0.102 0.198,-0.08 0.218,-0.066C0.239,-0.052 0.262,-0.044 0.288,-0.044C0.315,-0.044 0.341,-0.052 0.365,-0.068C0.389,-0.084 0.411,-0.107 0.431,-0.139L0.448,-0.112C0.422,-0.073 0.392,-0.043 0.358,-0.021C0.324,0.001 0.287,0.012 0.247,0.012C0.207,0.012 0.172,0.002 0.141,-0.019C0.11,-0.039 0.086,-0.067 0.068,-0.102C0.05,-0.137 0.041,-0.178 0.041,-0.224Z" style="fill:rgb(84,23,22);fill-rule:nonzero;"/>
                </g>
                <g transform="matrix(192,0,0,192,1142.17,1691.19)">
                </g>
            </g>
            <g transform="matrix(0.461729,-4.39625e-17,1.45717e-16,0.594651,4.61794,-500.012)">
                <g transform="matrix(192,0,0,192,377.22,1691.19)">
                    <path d="M0.188,-0.711L0.188,-0.063L0.145,-0.003C0.133,0.002 0.125,0.006 0.119,0.008C0.114,0.01 0.109,0.011 0.103,0.011C0.097,0.011 0.092,0.009 0.088,0.006C0.084,0.002 0.083,-0.003 0.083,-0.011L0.083,-0.64C0.083,-0.647 0.081,-0.653 0.079,-0.656C0.076,-0.66 0.072,-0.662 0.066,-0.662L0.032,-0.664C0.027,-0.665 0.022,-0.666 0.02,-0.669C0.017,-0.671 0.016,-0.674 0.016,-0.678C0.016,-0.683 0.018,-0.686 0.02,-0.689C0.023,-0.692 0.029,-0.695 0.036,-0.698L0.118,-0.727C0.129,-0.731 0.138,-0.734 0.145,-0.735C0.151,-0.737 0.157,-0.738 0.162,-0.738C0.171,-0.738 0.177,-0.735 0.182,-0.731C0.186,-0.726 0.188,-0.719 0.188,-0.711ZM0.163,-0.331L0.147,-0.358C0.172,-0.396 0.202,-0.427 0.237,-0.448C0.271,-0.47 0.308,-0.481 0.348,-0.481C0.388,-0.481 0.423,-0.471 0.454,-0.451C0.485,-0.43 0.509,-0.403 0.527,-0.367C0.545,-0.332 0.553,-0.291 0.553,-0.245C0.553,-0.193 0.543,-0.147 0.522,-0.109C0.501,-0.07 0.473,-0.041 0.438,-0.02C0.403,0.001 0.363,0.012 0.32,0.012C0.28,0.012 0.245,0.002 0.214,-0.018C0.182,-0.037 0.157,-0.065 0.138,-0.101L0.163,-0.127C0.18,-0.097 0.201,-0.074 0.225,-0.058C0.249,-0.043 0.275,-0.035 0.303,-0.035C0.329,-0.035 0.353,-0.042 0.374,-0.057C0.395,-0.071 0.412,-0.093 0.424,-0.123C0.436,-0.152 0.442,-0.189 0.442,-0.233C0.442,-0.276 0.436,-0.311 0.425,-0.339C0.413,-0.368 0.397,-0.389 0.376,-0.403C0.356,-0.418 0.333,-0.425 0.307,-0.425C0.279,-0.425 0.254,-0.417 0.23,-0.401C0.205,-0.386 0.183,-0.362 0.163,-0.331Z" style="fill:rgb(84,23,22);fill-rule:nonzero;"/>
                </g>
                <g transform="matrix(192,0,0,192,491.306,1691.19)">
                    <path d="M0.483,-0.293C0.483,-0.277 0.478,-0.265 0.469,-0.257C0.46,-0.249 0.446,-0.245 0.429,-0.245L0.109,-0.245L0.109,-0.277L0.349,-0.277C0.366,-0.277 0.375,-0.285 0.375,-0.3C0.375,-0.344 0.365,-0.379 0.346,-0.403C0.326,-0.428 0.301,-0.441 0.268,-0.441C0.243,-0.441 0.22,-0.434 0.201,-0.419C0.182,-0.405 0.166,-0.384 0.156,-0.358C0.145,-0.331 0.139,-0.3 0.139,-0.265C0.139,-0.198 0.155,-0.148 0.187,-0.114C0.219,-0.079 0.26,-0.062 0.312,-0.062C0.345,-0.062 0.374,-0.07 0.398,-0.085C0.422,-0.099 0.439,-0.119 0.45,-0.143C0.454,-0.149 0.457,-0.153 0.46,-0.155C0.463,-0.157 0.466,-0.158 0.47,-0.158C0.475,-0.158 0.478,-0.156 0.48,-0.152C0.482,-0.148 0.483,-0.143 0.483,-0.138C0.481,-0.111 0.471,-0.086 0.453,-0.063C0.435,-0.04 0.411,-0.022 0.381,-0.009C0.352,0.005 0.318,0.012 0.28,0.012C0.233,0.012 0.191,0.002 0.155,-0.018C0.119,-0.038 0.091,-0.065 0.071,-0.101C0.051,-0.137 0.041,-0.178 0.041,-0.226C0.041,-0.275 0.051,-0.319 0.071,-0.357C0.09,-0.395 0.118,-0.425 0.154,-0.448C0.19,-0.47 0.232,-0.481 0.282,-0.481C0.323,-0.481 0.359,-0.473 0.389,-0.457C0.419,-0.441 0.442,-0.419 0.458,-0.391C0.475,-0.362 0.483,-0.33 0.483,-0.293Z" style="fill:rgb(84,23,22);fill-rule:nonzero;"/>
                </g>
                <g transform="matrix(192,0,0,192,591.8,1691.19)">
                    <path d="M0.35,-0.062L0.35,-0.072L0.344,-0.075L0.344,-0.36C0.344,-0.389 0.336,-0.411 0.322,-0.427C0.307,-0.442 0.287,-0.45 0.26,-0.45C0.235,-0.45 0.216,-0.444 0.203,-0.434C0.19,-0.424 0.184,-0.411 0.184,-0.396L0.184,-0.357C0.184,-0.341 0.179,-0.329 0.168,-0.32C0.158,-0.311 0.143,-0.307 0.124,-0.307C0.108,-0.307 0.096,-0.311 0.087,-0.32C0.078,-0.328 0.074,-0.339 0.074,-0.354C0.074,-0.374 0.082,-0.394 0.098,-0.414C0.114,-0.433 0.138,-0.449 0.168,-0.462C0.199,-0.474 0.236,-0.48 0.28,-0.48C0.337,-0.48 0.379,-0.468 0.407,-0.444C0.435,-0.419 0.448,-0.387 0.449,-0.346L0.449,-0.075C0.448,-0.064 0.451,-0.056 0.455,-0.051C0.459,-0.046 0.465,-0.044 0.472,-0.044C0.48,-0.044 0.486,-0.046 0.49,-0.05C0.493,-0.053 0.496,-0.057 0.499,-0.061C0.501,-0.063 0.503,-0.065 0.504,-0.066C0.506,-0.068 0.508,-0.069 0.511,-0.069C0.515,-0.069 0.517,-0.067 0.519,-0.065C0.521,-0.062 0.521,-0.059 0.521,-0.055C0.521,-0.045 0.518,-0.035 0.512,-0.025C0.505,-0.015 0.495,-0.006 0.483,0.001C0.47,0.008 0.454,0.012 0.435,0.012C0.409,0.012 0.388,0.005 0.373,-0.007C0.358,-0.02 0.35,-0.038 0.35,-0.062ZM0.052,-0.104C0.052,-0.144 0.069,-0.176 0.105,-0.202C0.14,-0.227 0.189,-0.24 0.252,-0.24C0.275,-0.24 0.296,-0.237 0.315,-0.233C0.334,-0.229 0.35,-0.224 0.365,-0.217L0.357,-0.19C0.343,-0.195 0.329,-0.2 0.314,-0.204C0.3,-0.208 0.284,-0.21 0.267,-0.21C0.234,-0.21 0.208,-0.202 0.189,-0.186C0.17,-0.17 0.161,-0.149 0.161,-0.121C0.161,-0.095 0.169,-0.074 0.184,-0.06C0.199,-0.046 0.218,-0.038 0.242,-0.038C0.264,-0.038 0.286,-0.043 0.307,-0.054C0.327,-0.064 0.345,-0.078 0.36,-0.097L0.371,-0.073C0.351,-0.046 0.325,-0.025 0.294,-0.011C0.263,0.004 0.23,0.012 0.195,0.012C0.153,0.012 0.118,0.001 0.092,-0.02C0.065,-0.041 0.052,-0.069 0.052,-0.104Z" style="fill:rgb(84,23,22);fill-rule:nonzero;"/>
                </g>
                <g transform="matrix(192,0,0,192,696.344,1691.19)">
                    <path d="M0.408,-0.059L0.408,-0.091L0.405,-0.094L0.405,-0.379C0.405,-0.386 0.404,-0.392 0.401,-0.395C0.398,-0.399 0.394,-0.401 0.388,-0.401L0.355,-0.403C0.349,-0.404 0.345,-0.405 0.342,-0.408C0.34,-0.41 0.339,-0.413 0.339,-0.417C0.339,-0.422 0.34,-0.425 0.343,-0.428C0.346,-0.431 0.351,-0.434 0.358,-0.437L0.441,-0.466C0.451,-0.47 0.46,-0.472 0.467,-0.474C0.473,-0.476 0.479,-0.477 0.485,-0.477C0.493,-0.477 0.5,-0.474 0.504,-0.47C0.508,-0.465 0.511,-0.458 0.511,-0.45L0.511,-0.07C0.511,-0.061 0.512,-0.054 0.516,-0.049C0.519,-0.045 0.524,-0.042 0.531,-0.04L0.553,-0.035C0.559,-0.033 0.564,-0.031 0.567,-0.028C0.57,-0.025 0.571,-0.021 0.571,-0.017C0.571,-0.012 0.569,-0.008 0.565,-0.005C0.562,-0.002 0.556,-0 0.548,-0L0.46,-0C0.444,-0 0.432,-0.005 0.422,-0.016C0.413,-0.026 0.408,-0.041 0.408,-0.059ZM0.092,-0.136L0.092,-0.379C0.092,-0.386 0.091,-0.392 0.088,-0.395C0.086,-0.399 0.081,-0.401 0.076,-0.401L0.042,-0.403C0.036,-0.404 0.032,-0.405 0.029,-0.408C0.027,-0.41 0.026,-0.413 0.026,-0.417C0.026,-0.422 0.027,-0.425 0.03,-0.428C0.033,-0.431 0.038,-0.434 0.046,-0.437L0.128,-0.466C0.139,-0.47 0.148,-0.473 0.154,-0.474C0.161,-0.476 0.167,-0.477 0.171,-0.477C0.18,-0.477 0.187,-0.474 0.191,-0.47C0.196,-0.465 0.198,-0.458 0.198,-0.45L0.198,-0.153C0.198,-0.119 0.206,-0.094 0.222,-0.078C0.238,-0.061 0.26,-0.053 0.287,-0.053C0.303,-0.053 0.321,-0.057 0.34,-0.066C0.359,-0.074 0.38,-0.088 0.402,-0.107L0.424,-0.125L0.443,-0.105L0.422,-0.086C0.382,-0.05 0.347,-0.025 0.317,-0.01C0.287,0.004 0.259,0.012 0.232,0.012C0.19,0.012 0.156,-0.002 0.13,-0.028C0.105,-0.055 0.092,-0.091 0.092,-0.136Z" style="fill:rgb(84,23,22);fill-rule:nonzero;"/>
                </g>
                <g transform="matrix(192,0,0,192,813.388,1691.19)">
                    <path d="M0.071,-0.429L0.045,-0.436C0.036,-0.438 0.031,-0.441 0.027,-0.444C0.024,-0.447 0.023,-0.45 0.023,-0.454C0.023,-0.46 0.024,-0.464 0.028,-0.466C0.032,-0.469 0.037,-0.471 0.043,-0.471L0.075,-0.471C0.084,-0.471 0.091,-0.472 0.097,-0.475C0.102,-0.478 0.107,-0.483 0.111,-0.491L0.151,-0.563C0.156,-0.571 0.161,-0.577 0.166,-0.58C0.171,-0.584 0.176,-0.586 0.181,-0.586C0.187,-0.586 0.192,-0.584 0.195,-0.58C0.198,-0.576 0.2,-0.571 0.2,-0.565L0.2,-0.124C0.2,-0.101 0.205,-0.084 0.214,-0.072C0.224,-0.06 0.237,-0.054 0.254,-0.054C0.266,-0.054 0.276,-0.056 0.282,-0.06C0.289,-0.064 0.295,-0.069 0.298,-0.074C0.302,-0.08 0.306,-0.084 0.309,-0.089C0.313,-0.093 0.317,-0.095 0.322,-0.095C0.327,-0.095 0.33,-0.093 0.332,-0.091C0.335,-0.088 0.336,-0.083 0.336,-0.077C0.336,-0.063 0.331,-0.049 0.32,-0.036C0.31,-0.023 0.296,-0.012 0.277,-0.004C0.259,0.004 0.238,0.009 0.215,0.009C0.178,0.009 0.148,-0.001 0.127,-0.02C0.105,-0.039 0.094,-0.068 0.094,-0.107L0.094,-0.4C0.094,-0.408 0.092,-0.414 0.089,-0.418C0.085,-0.423 0.08,-0.426 0.071,-0.429ZM0.152,-0.431L0.152,-0.471L0.31,-0.471C0.317,-0.471 0.322,-0.469 0.326,-0.467C0.329,-0.464 0.331,-0.46 0.331,-0.455C0.331,-0.448 0.328,-0.442 0.321,-0.438C0.313,-0.433 0.302,-0.431 0.287,-0.431L0.152,-0.431Z" style="fill:rgb(84,23,22);fill-rule:nonzero;"/>
                </g>
                <g transform="matrix(192,0,0,192,883.622,1691.19)">
                    <path d="M0.321,-0.059L0.266,0.049L0.073,-0.396C0.067,-0.41 0.061,-0.419 0.055,-0.424C0.049,-0.429 0.038,-0.433 0.023,-0.436C0.017,-0.437 0.012,-0.44 0.01,-0.443C0.007,-0.445 0.006,-0.449 0.006,-0.454C0.006,-0.459 0.008,-0.463 0.012,-0.466C0.016,-0.469 0.022,-0.471 0.029,-0.471L0.23,-0.471C0.237,-0.471 0.243,-0.469 0.247,-0.466C0.251,-0.463 0.253,-0.459 0.253,-0.454C0.253,-0.449 0.251,-0.446 0.248,-0.443C0.245,-0.44 0.24,-0.438 0.233,-0.436L0.213,-0.433C0.196,-0.43 0.187,-0.424 0.184,-0.417C0.181,-0.409 0.184,-0.396 0.192,-0.377L0.321,-0.059ZM0.235,0.097L0.275,-0.002L0.289,-0.03L0.425,-0.373C0.433,-0.392 0.436,-0.406 0.433,-0.414C0.43,-0.422 0.421,-0.428 0.404,-0.431L0.382,-0.435C0.375,-0.437 0.37,-0.439 0.367,-0.442C0.364,-0.445 0.363,-0.449 0.363,-0.454C0.363,-0.459 0.365,-0.463 0.369,-0.466C0.373,-0.469 0.378,-0.471 0.385,-0.471L0.529,-0.471C0.536,-0.471 0.541,-0.469 0.545,-0.466C0.549,-0.463 0.551,-0.459 0.551,-0.454C0.551,-0.45 0.55,-0.446 0.547,-0.443C0.544,-0.44 0.54,-0.438 0.533,-0.436C0.517,-0.432 0.505,-0.426 0.498,-0.419C0.49,-0.413 0.483,-0.401 0.476,-0.383L0.285,0.091C0.268,0.131 0.253,0.161 0.238,0.183C0.224,0.204 0.208,0.219 0.191,0.228C0.175,0.236 0.155,0.24 0.132,0.24C0.098,0.24 0.071,0.231 0.051,0.213C0.032,0.195 0.022,0.173 0.022,0.148C0.022,0.129 0.026,0.115 0.035,0.104C0.043,0.094 0.055,0.089 0.069,0.089C0.083,0.089 0.094,0.094 0.101,0.102C0.109,0.111 0.114,0.123 0.118,0.138L0.123,0.155C0.124,0.167 0.128,0.176 0.134,0.182C0.14,0.187 0.148,0.19 0.156,0.19C0.165,0.19 0.173,0.188 0.181,0.183C0.189,0.178 0.198,0.168 0.206,0.155C0.215,0.142 0.225,0.122 0.235,0.097Z" style="fill:rgb(84,23,22);fill-rule:nonzero;"/>
                </g>
                <g transform="matrix(192,0,0,192,990.49,1691.19)">
                </g>
            </g>
        </g>
    </g>
</svg>
